<svg width="1600" height="1000" viewBox="0 0 1600 1000" fill="none" xmlns="http://www.w3.org/2000/svg">
  <rect width="1600" height="1000" fill="#0C1820"/>
  <rect x="88" y="88" width="1424" height="824" rx="42" fill="#12232D" stroke="#284654"/>
  <path d="M0 624C176 588 302 606 470 648C652 694 800 714 980 678C1154 644 1330 560 1600 586V1000H0V624Z" fill="#214554"/>
  <path d="M0 712C196 662 338 686 510 734C690 784 834 804 1012 770C1170 740 1328 684 1600 712V1000H0V712Z" fill="#2C6070"/>
  <path d="M780 276V622" stroke="#D7E9EF" stroke-width="8" stroke-linecap="round"/>
  <path d="M786 288L620 550H786V288Z" fill="#EAF6F8"/>
  <path d="M792 328L954 520H792V328Z" fill="#84D0C0"/>
  <path d="M640 632H1018" stroke="#D7E9EF" stroke-width="12" stroke-linecap="round"/>
  <text x="214" y="252" fill="#F3FBFF" font-family="Geist, Arial, sans-serif" font-size="80" letter-spacing="8">HARBOUR LOG</text>
</svg>
