<svg width="1600" height="1000" viewBox="0 0 1600 1000" fill="none" xmlns="http://www.w3.org/2000/svg">
  <rect width="1600" height="1000" fill="#F2EEE7"/>
  <rect x="86" y="86" width="1428" height="828" rx="40" fill="#F8F4EC" stroke="#D7D0C4"/>
  <circle cx="520" cy="374" r="84" fill="#5673DB" fill-opacity="0.18"/>
  <circle cx="808" cy="374" r="84" fill="#2E8D83" fill-opacity="0.18"/>
  <circle cx="1096" cy="374" r="84" fill="#725ED9" fill-opacity="0.16"/>
  <circle cx="520" cy="374" r="46" fill="#3E5DC5"/>
  <circle cx="808" cy="374" r="46" fill="#2E8D83"/>
  <circle cx="1096" cy="374" r="46" fill="#725ED9"/>
  <path d="M566 410C640 486 700 526 808 526C916 526 984 482 1050 410" stroke="#181B22" stroke-width="10" stroke-linecap="round"/>
  <path d="M520 460V676" stroke="#C1B9AE" stroke-width="10" stroke-linecap="round"/>
  <path d="M808 460V676" stroke="#C1B9AE" stroke-width="10" stroke-linecap="round"/>
  <path d="M1096 460V676" stroke="#C1B9AE" stroke-width="10" stroke-linecap="round"/>
  <text x="222" y="260" fill="#181B22" font-family="Geist, Arial, sans-serif" font-size="60" letter-spacing="8">TRUST</text>
  <text x="726" y="242" fill="#5673DB" fill-opacity="0.78" font-family="Geist Mono, monospace" font-size="24" letter-spacing="8">TEAM</text>
  <text x="726" y="564" fill="#2E8D83" fill-opacity="0.82" font-family="Geist Mono, monospace" font-size="26" letter-spacing="8">STANDARDS</text>
  <text x="1050" y="734" fill="#181B22" font-family="Geist, Arial, sans-serif" font-size="46" letter-spacing="7">MOMENTUM</text>
  <text x="246" y="760" fill="#746D63" fill-opacity="0.72" font-family="Geist Mono, monospace" font-size="22" letter-spacing="7">ALIGNMENT</text>
</svg>
