<svg width="1600" height="1000" viewBox="0 0 1600 1000" fill="none" xmlns="http://www.w3.org/2000/svg">
  <rect width="1600" height="1000" fill="#F2EDE3"/>
  <rect x="84" y="84" width="1432" height="832" rx="40" fill="#F8F3EA" stroke="#D7D0C5"/>
  <path d="M220 252H574" stroke="#181B22" stroke-width="10" stroke-linecap="round"/>
  <path d="M220 308H706" stroke="#6A7282" stroke-width="6" stroke-linecap="round"/>
  <path d="M220 364H612" stroke="#6A7282" stroke-width="6" stroke-linecap="round"/>
  <rect x="948" y="212" width="258" height="402" rx="26" fill="#FFF9EF" stroke="#D7D0C5"/>
  <rect x="1018" y="286" width="118" height="252" rx="12" fill="#E6DED0"/>
  <path d="M640 650C748 560 850 504 944 502C1026 500 1088 544 1180 620" stroke="#3852B8" stroke-width="12" stroke-linecap="round"/>
  <path d="M632 720C760 616 892 574 1006 582C1084 588 1148 632 1228 704" stroke="#2A8A7E" stroke-width="12" stroke-linecap="round"/>
  <text x="214" y="230" fill="#181B22" font-family="Geist, Arial, sans-serif" font-size="64" letter-spacing="8">LIMIT</text>
  <text x="924" y="250" fill="#6A7282" fill-opacity="0.74" font-family="Geist Mono, monospace" font-size="24" letter-spacing="7">USAGE</text>
  <text x="720" y="612" fill="#3852B8" fill-opacity="0.8" font-family="Geist Mono, monospace" font-size="28" letter-spacing="8">TOKENS</text>
  <text x="1108" y="690" fill="#2A8A7E" fill-opacity="0.76" font-family="Geist Mono, monospace" font-size="26" letter-spacing="8">BRAIN</text>
  <text x="226" y="780" fill="#7C7369" fill-opacity="0.72" font-family="Geist Mono, monospace" font-size="22" letter-spacing="7">ECONOMY</text>
</svg>
