<svg version="1.1" xmlns="http://www.w3.org/2000/svg" viewBox="0 0 240 213.763">
  <defs>
    <mask id="star-cutout">
      <!-- white = show, black = punch through -->
      <rect width="240" height="163" fill="white"/>
      <path d="m127.48,59.755,42.879-20.232c0.172-0.091,0.268,0.172,0.396,0.214l-29.65,37.065,43.317,20.934c0.218,0.129,0.435,0.305,0.138,0.521l-47.566,0.046,10.878,47.262-0.305,0.267-31.11-38.015h-0.396l-30.79,38.068c-0.175,0.133-0.263,0.133-0.438,0.003l10.726-47.431-47.475-0.126c-0.176-0.133-0.176-0.263-0.176-0.396l43.162-20.777,0.301-0.305-29.75-37.012c-0.087-0.217,0.088-0.309,0.222-0.483l42.922,20.235,11.236-46.034h0.305l11.16,46.194" fill="black"/>
    </mask>
  </defs>

  <!-- Rounded square emblem with star punched out -->
  <path fill="white" mask="url(#star-cutout)" d="m174.26,1.607c11.16-0.046,18.35,9.022,18.384,18.361l0.034,123.94c-0.053,10.039-7.997,18.399-18.502,18.43h-115.74c-10.775-0.02-18.388-8.88-18.388-18.5l0.004-123.87c-0.008-10.344,8.722-18.486,18.433-18.433l115.78,0.072"/>

  <!-- MAERSK wordmark -->
  <polyline points="0,213.75,0,179.98,8.992,179.98,20.377,205.03,31.599,179.98,40.205,179.98,40.205,213.75,32.795,213.75,32.795,194.42,24.241,213.75,16.343,213.75,7.686,194.52,7.686,213.75,0,213.75" fill="white"/>
  <path fill="white" d="m52.295,213.75h-8.718l14.979-33.77h10.737l15.084,33.77h-8.607l-2.968-6.755-17.63,0.053-2.877,6.702m17.729-13.072-6.127-13.949-5.989,13.949h12.116z"/>
  <polyline points="87.917,213.75,87.917,179.98,120.18,179.98,120.18,186.73,95.709,186.73,95.709,193.49,116.69,193.49,116.69,200.19,95.709,200.19,95.709,207,120.18,207,120.18,213.75,87.917,213.75" fill="white"/>
  <path fill="white" d="m126.44,213.75v-33.77h27.62s1.779-0.201,3.658,1.627c1.684,1.635,1.405,4.035,1.405,4.035v11.347s0.332,2.084-1.657,3.867c-1.92,1.719-4.713,1.346-4.713,1.346l6.428,11.548h-8.443l-6.378-11.548h-10.018v11.548h-7.902m7.903-18.3h16.94v-8.718h-16.94v8.718z"/>
  <path fill="white" d="m173.33,213.75h-2.675s-2.348-0.045-3.681-1.451c-1.543-1.635-1.49-3.506-1.49-3.506v-4.412h7.846v2.62h16.669v-6.813h-19.13s-2.358,0.239-3.811-1.254c-1.615-1.653-1.44-3.646-1.44-3.646v-10.131s-0.034-1.703,1.113-3.216c1.649-2.176,4.194-1.959,4.194-1.959l21.855,0.016s1.783-0.126,3.528,1.565c1.913,1.845,1.471,3.811,1.471,3.811v4.031h-7.788v-2.671h-16.669v6.756h19.065s2.237-0.164,3.811,1.634c1.581,1.799,1.581,3.811,1.581,3.811v9.533s0.256,1.871-1.242,3.57c-1.699,1.936-3.985,1.714-3.985,1.714h-19.229"/>
  <polyline points="205.25,213.74,205.25,179.96,213.25,179.96,213.25,193.47,228.5,179.96,239.35,179.96,221.16,195.65,240,213.74,228.78,213.74,213.25,198.37,213.25,213.74,205.25,213.74" fill="white"/>
</svg>
